<svg width="32" height="32" viewBox="0 0 32 32" fill="none" xmlns="http://www.w3.org/2000/svg">
<mask id="mask0_1483_60" style="mask-type:luminance" maskUnits="userSpaceOnUse" x="0" y="0" width="32" height="32">
<path d="M0 0H32V32H0V0Z" fill="white"/>
<path fill-rule="evenodd" clip-rule="evenodd" d="M24.0157 11.0769H12.9068C12.4445 11.0769 11.9881 11.1811 11.5716 11.3818C11.1551 11.5824 10.7892 11.8743 10.501 12.2358C10.2129 12.5973 10.0098 13.0191 9.90706 13.4698C9.8043 13.9206 9.80442 14.3887 9.90742 14.8394L11.0311 19.7624C11.1864 20.442 11.5679 21.0487 12.113 21.4831C12.6581 21.9176 13.3346 22.1541 14.0317 22.1538H22.892C23.5889 22.1538 24.2651 21.9172 24.81 21.4828C25.3549 21.0483 25.7362 20.4418 25.8914 19.7624L27.0151 14.8394C27.1181 14.3887 27.1182 13.9206 27.0155 13.4698C26.9127 13.0191 26.7097 12.5973 26.4215 12.2358C26.1333 11.8743 25.7674 11.5824 25.3509 11.3818C24.9344 11.1811 24.478 11.0769 24.0157 11.0769ZM12.7702 13.5544C12.815 13.544 12.8608 13.5387 12.9068 13.5384H24.0157C24.1081 13.5385 24.1993 13.5594 24.2824 13.5996C24.3656 13.6397 24.4387 13.698 24.4963 13.7703C24.5539 13.8425 24.5945 13.9268 24.615 14.0168C24.6356 14.1069 24.6356 14.2004 24.6151 14.2904L23.4914 19.2135C23.4605 19.3494 23.3843 19.4708 23.2755 19.5577C23.1666 19.6447 23.0314 19.6921 22.892 19.6923H14.0305C13.8911 19.6921 13.756 19.6447 13.6471 19.5577C13.5382 19.4708 13.462 19.3494 13.4311 19.2135L12.3074 14.2904C12.2714 14.1315 12.2998 13.9647 12.3866 13.8267C12.4734 13.6888 12.6113 13.5908 12.7702 13.5544Z" fill="black"/>
<path d="M7.98747 6.1538H6.15362C5.8272 6.1538 5.51415 6.02413 5.28334 5.79331C5.05252 5.5625 4.92285 5.24945 4.92285 4.92303C4.92285 4.59661 5.05252 4.28356 5.28334 4.05274C5.51415 3.82193 5.8272 3.69226 6.15362 3.69226H8.97208C9.25134 3.6924 9.52226 3.78751 9.74032 3.96196C9.95839 4.13641 10.1106 4.37984 10.1721 4.65226L13.5075 19.4215C13.5488 19.5811 13.5576 19.7474 13.5334 19.9104C13.5092 20.0735 13.4524 20.2301 13.3666 20.3708C13.2807 20.5115 13.1674 20.6336 13.0335 20.7297C12.8995 20.8258 12.7476 20.894 12.5868 20.9303C12.426 20.9666 12.2595 20.9702 12.0973 20.9409C11.9351 20.9117 11.7804 20.8501 11.6424 20.7599C11.5044 20.6696 11.3859 20.5526 11.2941 20.4157C11.2022 20.2788 11.1387 20.1249 11.1075 19.963L7.98747 6.1538ZM15.9998 24.923C15.9998 25.4943 15.7729 26.0421 15.3689 26.446C14.965 26.85 14.4172 27.0769 13.8459 27.0769C13.2747 27.0769 12.7269 26.85 12.3229 26.446C11.919 26.0421 11.6921 25.4943 11.6921 24.923C11.6921 24.3518 11.919 23.804 12.3229 23.4C12.7269 22.9961 13.2747 22.7692 13.8459 22.7692C14.4172 22.7692 14.965 22.9961 15.3689 23.4C15.7729 23.804 15.9998 24.3518 15.9998 24.923ZM24.6152 24.923C24.6152 25.2059 24.5594 25.486 24.4512 25.7473C24.343 26.0086 24.1843 26.246 23.9843 26.446C23.7843 26.646 23.5469 26.8047 23.2856 26.9129C23.0242 27.0212 22.7442 27.0769 22.4613 27.0769C22.1785 27.0769 21.8984 27.0212 21.6371 26.9129C21.3758 26.8047 21.1383 26.646 20.9383 26.446C20.7383 26.246 20.5797 26.0086 20.4714 25.7473C20.3632 25.486 20.3075 25.2059 20.3075 24.923C20.3075 24.3518 20.5344 23.804 20.9383 23.4C21.3422 22.9961 21.8901 22.7692 22.4613 22.7692C23.0325 22.7692 23.5804 22.9961 23.9843 23.4C24.3882 23.804 24.6152 24.3518 24.6152 24.923Z" fill="black"/>
</mask>
<g mask="url(#mask0_1483_60)">
<path d="M16 32C24.8366 32 32 24.8366 32 16C32 7.16344 24.8366 0 16 0C7.16344 0 0 7.16344 0 16C0 24.8366 7.16344 32 16 32Z" fill="#FBDA0C"/>
</g>
</svg>
