<svg width="38" height="38" viewBox="0 0 38 38" fill="none" xmlns="http://www.w3.org/2000/svg">
<circle cx="19" cy="19" r="18.625" stroke="#FBDA0C" stroke-width="0.75"/>
<path fill-rule="evenodd" clip-rule="evenodd" d="M15.7018 10.548C16.5549 10.5087 16.8269 10.5 19 10.5C21.1731 10.5 21.4451 10.5095 22.2975 10.548C23.1498 10.5865 23.7316 10.7225 24.2407 10.9196C24.7738 11.1211 25.2575 11.436 25.6575 11.8433C26.0647 12.2425 26.3789 12.7255 26.5796 13.2593C26.7775 13.7684 26.9127 14.3502 26.952 15.2011C26.9913 16.0556 27 16.3276 27 18.5C27 20.6731 26.9905 20.9451 26.952 21.7982C26.9135 22.6491 26.7775 23.2309 26.5796 23.74C26.3789 24.2739 26.0642 24.7576 25.6575 25.1575C25.2575 25.5647 24.7738 25.8789 24.2407 26.0796C23.7316 26.2775 23.1498 26.4127 22.2989 26.452C21.4451 26.4913 21.1731 26.5 19 26.5C16.8269 26.5 16.5549 26.4905 15.7018 26.452C14.8509 26.4135 14.2691 26.2775 13.76 26.0796C13.2261 25.8789 12.7424 25.5642 12.3425 25.1575C11.9355 24.7579 11.6206 24.2745 11.4196 23.7407C11.2225 23.2316 11.0873 22.6498 11.048 21.7989C11.0087 20.9444 11 20.6724 11 18.5C11 16.3269 11.0095 16.0549 11.048 15.2025C11.0865 14.3502 11.2225 13.7684 11.4196 13.2593C11.6209 12.7255 11.9361 12.242 12.3433 11.8425C12.7426 11.4356 13.2258 11.1207 13.7593 10.9196C14.2684 10.7225 14.8502 10.5873 15.7011 10.548H15.7018ZM22.2327 11.988C21.3891 11.9495 21.136 11.9415 19 11.9415C16.864 11.9415 16.6109 11.9495 15.7673 11.988C14.9869 12.0236 14.5636 12.1538 14.2815 12.2636C13.9084 12.4091 13.6415 12.5815 13.3615 12.8615C13.096 13.1197 12.8918 13.434 12.7636 13.7815C12.6538 14.0636 12.5236 14.4869 12.488 15.2673C12.4495 16.1109 12.4415 16.364 12.4415 18.5C12.4415 20.636 12.4495 20.8891 12.488 21.7327C12.5236 22.5131 12.6538 22.9364 12.7636 23.2185C12.8916 23.5655 13.096 23.8804 13.3615 24.1385C13.6196 24.404 13.9345 24.6084 14.2815 24.7364C14.5636 24.8462 14.9869 24.9764 15.7673 25.012C16.6109 25.0505 16.8633 25.0585 19 25.0585C21.1367 25.0585 21.3891 25.0505 22.2327 25.012C23.0131 24.9764 23.4364 24.8462 23.7185 24.7364C24.0916 24.5909 24.3585 24.4185 24.6385 24.1385C24.904 23.8804 25.1084 23.5655 25.2364 23.2185C25.3462 22.9364 25.4764 22.5131 25.512 21.7327C25.5505 20.8891 25.5585 20.636 25.5585 18.5C25.5585 16.364 25.5505 16.1109 25.512 15.2673C25.4764 14.4869 25.3462 14.0636 25.2364 13.7815C25.0909 13.4084 24.9185 13.1415 24.6385 12.8615C24.3803 12.5961 24.066 12.3918 23.7185 12.2636C23.4364 12.1538 23.0131 12.0236 22.2327 11.988ZM17.9782 20.9662C18.5488 21.2037 19.1843 21.2358 19.7759 21.0569C20.3676 20.878 20.8788 20.4992 21.2223 19.9853C21.5657 19.4713 21.72 18.8541 21.6589 18.239C21.5978 17.6239 21.3251 17.0491 20.8873 16.6127C20.6082 16.3338 20.2707 16.1202 19.8992 15.9874C19.5276 15.8545 19.1312 15.8057 18.7385 15.8444C18.3459 15.8832 17.9667 16.0085 17.6282 16.2114C17.2898 16.4142 17.0005 16.6896 16.7813 17.0177C16.5621 17.3458 16.4183 17.7184 16.3604 18.1087C16.3024 18.499 16.3317 18.8973 16.4462 19.2749C16.5607 19.6525 16.7574 20.0001 17.0223 20.2925C17.2872 20.585 17.6137 20.815 17.9782 20.9662ZM16.0924 15.5924C16.4742 15.2105 16.9275 14.9076 17.4264 14.701C17.9253 14.4943 18.46 14.388 19 14.388C19.54 14.388 20.0747 14.4943 20.5736 14.701C21.0725 14.9076 21.5258 15.2105 21.9076 15.5924C22.2895 15.9742 22.5924 16.4275 22.799 16.9264C23.0057 17.4253 23.112 17.96 23.112 18.5C23.112 19.04 23.0057 19.5747 22.799 20.0736C22.5924 20.5725 22.2895 21.0258 21.9076 21.4076C21.1365 22.1788 20.0906 22.612 19 22.612C17.9094 22.612 16.8635 22.1788 16.0924 21.4076C15.3212 20.6365 14.888 19.5906 14.888 18.5C14.888 17.4094 15.3212 16.3635 16.0924 15.5924ZM24.024 15.0004C24.1186 14.9111 24.1944 14.8038 24.2468 14.6847C24.2992 14.5656 24.3271 14.4373 24.329 14.3072C24.3309 14.1772 24.3067 14.048 24.2578 13.9275C24.2089 13.807 24.1363 13.6975 24.0443 13.6055C23.9524 13.5135 23.8429 13.4409 23.7223 13.392C23.6018 13.3431 23.4727 13.3189 23.3426 13.3208C23.2125 13.3227 23.0842 13.3507 22.9651 13.4031C22.8461 13.4554 22.7387 13.5312 22.6495 13.6258C22.4759 13.8098 22.3808 14.0543 22.3845 14.3072C22.3882 14.5602 22.4903 14.8017 22.6692 14.9806C22.8481 15.1595 23.0896 15.2616 23.3426 15.2653C23.5955 15.269 23.84 15.174 24.024 15.0004Z" fill="#FBDA0C"/>
</svg>
