<svg width="38" height="38" viewBox="0 0 38 38" fill="none" xmlns="http://www.w3.org/2000/svg">
<circle cx="19" cy="19" r="18.625" stroke="#FBDA0C" stroke-width="0.75"/>
<path fill-rule="evenodd" clip-rule="evenodd" d="M28 26.5H24.7125V20.9007C24.7125 19.3655 24.1292 18.5076 22.9141 18.5076C21.5922 18.5076 20.9016 19.4003 20.9016 20.9007V26.5H17.7333V15.8333H20.9016V17.2701C20.9016 17.2701 21.8542 15.5074 24.1177 15.5074C26.3802 15.5074 28 16.8891 28 19.7465V26.5ZM13.9536 14.4366C12.8745 14.4366 12 13.5553 12 12.4683C12 11.3813 12.8745 10.5 13.9536 10.5C15.0328 10.5 15.9068 11.3813 15.9068 12.4683C15.9068 13.5553 15.0328 14.4366 13.9536 14.4366ZM12.3177 26.5H15.6214V15.8333H12.3177V26.5Z" fill="#FBDA0C"/>
</svg>
