<svg width="14" height="15" viewBox="0 0 14 15" fill="none" xmlns="http://www.w3.org/2000/svg">
<path d="M13.0001 13.5L10.1048 10.6047M10.1048 10.6047C10.6001 10.1094 10.9929 9.52147 11.261 8.87438C11.529 8.22729 11.6669 7.53375 11.6669 6.83335C11.6669 6.13295 11.529 5.4394 11.261 4.79232C10.9929 4.14523 10.6001 3.55727 10.1048 3.06202C9.60955 2.56676 9.02159 2.1739 8.3745 1.90586C7.72742 1.63783 7.03387 1.49988 6.33347 1.49988C5.63307 1.49988 4.93953 1.63783 4.29244 1.90586C3.64535 2.1739 3.0574 2.56676 2.56214 3.06202C1.56192 4.06224 1 5.41882 1 6.83335C1 8.24787 1.56192 9.60446 2.56214 10.6047C3.56236 11.6049 4.91895 12.1668 6.33347 12.1668C7.748 12.1668 9.10458 11.6049 10.1048 10.6047Z" stroke="white" stroke-width="2" stroke-linecap="round" stroke-linejoin="round"/>
</svg>
